<svg width="155" height="32" viewBox="0 0 155 32" fill="none" xmlns="http://www.w3.org/2000/svg">
<path d="M0.76 31V4.28H7.08V25.44H19.88V31H0.76ZM27.5422 7.88C26.5555 7.88 25.7022 7.53333 24.9822 6.84C24.2889 6.12 23.9422 5.26666 23.9422 4.28C23.9422 3.26667 24.2889 2.41333 24.9822 1.72C25.7022 1.02667 26.5555 0.679999 27.5422 0.679999C28.5555 0.679999 29.4089 1.02667 30.1022 1.72C30.7955 2.41333 31.1422 3.26667 31.1422 4.28C31.1422 5.26666 30.7955 6.12 30.1022 6.84C29.4089 7.53333 28.5555 7.88 27.5422 7.88ZM24.4622 31V15.8H20.7022V11.16H30.5822V31H24.4622ZM46.4794 31.48C45.4127 31.48 44.2927 31.2267 43.1194 30.72C41.9727 30.2133 41.0794 29.4133 40.4394 28.32L39.6794 31H34.3594V4.28H40.4394V13.88C41.0794 12.7867 41.9727 11.9733 43.1194 11.44C44.2927 10.88 45.4127 10.6 46.4794 10.6C48.186 10.6 49.6927 11.0133 50.9994 11.84C52.3327 12.6667 53.3727 13.8533 54.1194 15.4C54.866 16.92 55.2394 18.76 55.2394 20.92C55.2394 23.08 54.866 24.96 54.1194 26.56C53.3727 28.1333 52.3327 29.3467 50.9994 30.2C49.6927 31.0533 48.186 31.48 46.4794 31.48ZM44.5594 26.76C45.7327 26.76 46.746 26.2533 47.5994 25.24C48.4794 24.2 48.9194 22.76 48.9194 20.92C48.9194 19.1067 48.4794 17.72 47.5994 16.76C46.746 15.8 45.7327 15.32 44.5594 15.32C43.3594 15.32 42.3194 15.7733 41.4394 16.68C40.586 17.56 40.1594 19.0133 40.1594 21.04C40.1594 23.0933 40.586 24.56 41.4394 25.44C42.3194 26.32 43.3594 26.76 44.5594 26.76Z" fill="#003057"/>
<path d="M65.6275 31L56.5875 4.28H63.1475L69.2675 23.92L75.4275 4.28H82.0275L72.9475 31H65.6275ZM84.1975 31V4.28H90.5175V14.48H101.518V4.28H107.838V31H101.518V20.04H90.5175V31H84.1975ZM111.346 31V4.28H117.666V25.44H130.466V31H111.346ZM143.63 31.48C140.724 31.48 138.27 30.8933 136.27 29.72C134.297 28.52 132.897 26.8533 132.07 24.72L137.83 22.64C138.204 23.92 138.897 24.8667 139.91 25.48C140.95 26.0933 142.204 26.4 143.67 26.4C144.444 26.4 145.19 26.32 145.91 26.16C146.63 25.9733 147.23 25.68 147.71 25.28C148.19 24.8533 148.43 24.2933 148.43 23.6C148.43 22.6667 147.977 21.9467 147.07 21.44C146.164 20.9067 144.99 20.5067 143.55 20.24L140.31 19.6C138.87 19.3067 137.524 18.8667 136.27 18.28C135.044 17.6667 134.057 16.8667 133.31 15.88C132.564 14.8667 132.19 13.6 132.19 12.08C132.19 10.64 132.524 9.4 133.19 8.36C133.857 7.32 134.737 6.46667 135.83 5.8C136.95 5.13333 138.177 4.64 139.51 4.32C140.844 3.97333 142.177 3.8 143.51 3.8C144.95 3.8 146.337 4 147.67 4.4C149.03 4.8 150.244 5.42667 151.31 6.28C152.377 7.10667 153.19 8.21333 153.75 9.6L148.03 11.68C147.684 10.7733 147.057 10.08 146.15 9.6C145.27 9.12 144.204 8.88 142.95 8.88C141.724 8.88 140.697 9.10667 139.87 9.56C139.07 9.98667 138.67 10.6133 138.67 11.44C138.67 12.1067 138.95 12.68 139.51 13.16C140.07 13.64 140.804 13.9733 141.71 14.16L145.31 14.88C146.404 15.0933 147.51 15.3733 148.63 15.72C149.75 16.04 150.777 16.48 151.71 17.04C152.67 17.5733 153.444 18.2933 154.03 19.2C154.617 20.1067 154.91 21.2533 154.91 22.64C154.91 24.0533 154.577 25.32 153.91 26.44C153.27 27.5333 152.404 28.4533 151.31 29.2C150.244 29.9467 149.044 30.52 147.71 30.92C146.377 31.2933 145.017 31.48 143.63 31.48Z" fill="#EAAA00"/>
</svg>
